<?xml version="1.0" encoding="UTF-8"?>
<!-- Created with Inkscape (http://www.inkscape.org/) -->
<svg id="svg8" width="1014.6pt" height="1e3pt" version="1.1" viewBox="0 0 1014.6 1e3" xmlns="http://www.w3.org/2000/svg" xmlns:cc="http://creativecommons.org/ns#" xmlns:dc="http://purl.org/dc/elements/1.1/" xmlns:rdf="http://www.w3.org/1999/02/22-rdf-syntax-ns#">
 <metadata id="metadata5">
  <rdf:RDF>
   <cc:Work rdf:about="">
    <dc:format>image/svg+xml</dc:format>
    <dc:type rdf:resource="http://purl.org/dc/dcmitype/StillImage"/>
    <dc:title/>
   </cc:Work>
  </rdf:RDF>
 </metadata>
 <g id="layer1" transform="translate(-684.74 1222.3)">
  <g id="g3312">
   <path id="path298" d="m755.85-284.38v-31.907h70.184v91.508h-18.148l-5.7282-19.79c-12.67 15.454-26.625 22.181-46.575 22.181-50.126 0-70.844-41.614-70.844-86.423 0-46.111 22.717-89.171 74.342-89.171 36.868 0 61.725 22.431 66.954 58.406l-37.795 5.2107c-1.7488-17.095-10.975-31.46-30.158-31.46-28.177 0-32.406 36.421-32.406 57.514 0 22.181 6.2279 53.517 34.155 53.517 17.434 0 29.408-12.188 28.409-29.587h-32.388" fill="#1673c3"/>
   <path id="path300" d="m877.25-303.52c1.2491-14.419 7.477-26.357 23.68-26.357 15.935 0 20.415 12.688 21.164 26.357zm81.48 21.557c0.24983-17.095-2.4983-34.994-12.955-49.412-10.475-14.454-28.659-22.431-46.343-22.431-39.366 0-61.547 30.14-61.547 67.382 0 37.742 24.662 64.081 62.546 64.081 42.846 0 57.55-37.349 57.55-43.595l-33.887-2.5161c0 11.76-11.207 20.022-22.431 20.022-15.935 0-24.412-12.259-24.412-27.267l0.24983-6.2636h81.23" fill="#1673c3"/>
   <path id="path302" d="m1028.3-329.63c8.4763 0 14.454 3.2299 17.434 11.439 3.4797 9.4578 3.9794 21.396 3.9794 31.336 0 15.168-0.9993 40.044-21.664 40.044-20.914 0-20.664-30.836-20.664-45.255 0-14.436 1.2491-37.563 20.914-37.563zm-0.2499-24.162c-38.598 0-60.03 28.641-60.03 65.455 0 36.546 21.182 65.955 60.03 65.955 37.367 0 61.03-28.659 61.03-64.723 0-37.296-21.414-66.686-61.03-66.686" fill="#1673c3"/>
   <path id="path304" d="m1202.8-329.31c-0.2498-18.88-6.7275-36.511-28.659-36.511-28.159 0-30.907 36.76-30.907 57.371 0 23.341 2.7481 53.392 32.906 53.392 18.684 0 27.392-15.65 29.64-32.032l38.866 2.4804c-4.2292 39.027-31.139 62.225-70.505 62.225-50.858 0-75.555-41.364-75.555-87.815 0-47.182 25.447-87.779 76.804-87.779 42.846 0 64.777 24.929 69.256 65.937l-41.846 2.7303" fill="#70c72d"/>
   <path id="path306" d="m1257.7-351.4h36.671v126.63h-36.671zm0-46.593h36.671v35.386h-36.671z" fill="#70c72d"/>
   <path id="path308" d="m1409.5-351.4h36.671v126.63h-36.671zm0-46.593h36.671v35.386h-36.671z" fill="#70c72d"/>
   <path id="path310" d="m1500-303.52c1.2491-14.419 7.477-26.357 23.662-26.357 15.953 0 20.432 12.688 21.182 26.357zm81.48 21.557c0.2499-17.095-2.4982-34.994-12.955-49.412-10.475-14.454-28.659-22.431-46.343-22.431-39.384 0-61.547 30.14-61.547 67.382 0 37.742 24.662 64.081 62.528 64.081 42.863 0 57.568-37.349 57.568-43.595l-33.887-2.5161c0 11.76-11.206 20.022-22.431 20.022-15.935 0-24.412-12.259-24.412-27.267l0.2498-6.2636h81.23" fill="#70c72d"/>
   <path id="path312" d="m1666.9-313.5c-3.2299-11.92-12.67-16.899-24.572-16.899-7.4413 0-18.862 1.9808-18.862 11.189 0 23.627 75.841-3.2299 75.841 53.713 0 13.187-6.2279 24.894-16.953 32.638-11.474 7.9766-25.393 10.475-39.277 10.475-26.357 0-51.09-8.976-57.817-37.403l31.71-4.4612c2.4982 12.92 16.167 16.899 27.838 16.899 6.9416 0 22.092-2.4804 22.092-11.938 0-8.4406-7.4592-9.9396-14.151-10.689-8.6904-0.99931-29.533-4.7289-37.528-7.4592-14.99-5.2286-24.983-18.148-24.983-34.066 0-31.104 27.231-42.328 54.07-42.328 24.822 0 41.043 9.4756 49.769 33.12l-27.178 7.2093" fill="#70c72d"/>
   <path id="path314" d="m1188.8-1165.2c-106.48 0-176.74 89.135-176.74 177.84 0 80.873 53.071 126.72 53.071 126.72-2.8373 2.5161-55.283 27.535-57.05 76.358-1.6417 45.29 56.836 68.667 56.836 68.667-54.141 19.79-81.765 61.315-79.927 108.34 1.7845 45.29 49.662 121.63 202.06 121.63 164.67 0 237.48-68.97 237.48-151.82 0-96.13-106.62-114.46-169.51-117.37-111.98-5.175-179.06 6.0851-192.47-34.173-5.9245-17.756 11.795-37.064 33.923-46.843 0 0 37.171 26.303 93.4 26.303 98.2 0 177.82-79.606 177.82-177.81 0-45.094-16.31-86.262-43.756-117.62 7.7982-14.633 16.06-30.515 33.316-30.586 6.8345-0.036 11.706 4.8717 18.541 9.7433 7.7982 5.8531 16.578 10.743 32.174 10.743 30.229 0 52.66-23.412 52.66-53.642s-23.412-52.803-52.66-53.642c-66.972-1.9094-104.75 97.326-104.75 97.326-30.622-25.09-70.166-40.133-114.31-40.133m-78.714 463.77c27.909 5.3892 96.166 5.5319 135.85 7.1023 39.705 1.5703 112.78 8.8689 114.89 62.386 1.838 47.021-66.365 81.176-164.55 81.176-94.096 0-151.79-31.336-144.35-82.193 6.6561-45.397 58.156-68.471 58.156-68.471zm79.677-164.87c-66.883 0-121.1-54.213-121.1-121.1 0-66.883 54.213-121.1 121.1-121.1s121.1 54.213 121.1 121.1c0 66.883-54.213 121.1-121.1 121.1" fill="#231f20"/>
   <path id="path316" d="m1244.4-1046.8c-19.397 0-35.119 15.721-35.119 35.101 0 19.397 15.721 35.119 35.119 35.119 19.38 0 35.101-15.721 35.101-35.119 0-19.38-15.721-35.101-35.101-35.101" fill="#231f20"/>
   <path id="path318" d="m1307.6-322.17v-29.23h22.181l3.2299-37.117 31.782-2.4983v39.616h27.142v29.23h-27.16v50.144c0 14.633 0 20.593 17.684 19.844l11.456-0.48182v27.588l-2.4804 0.48181c-6.9773 0.99931-13.705 2.2484-20.432 2.2484-10.475 0-24.447-1.499-32.674-8.2086-10.243-8.4406-10.243-23.609-10.243-36.011v-55.605h-20.486" fill="#70c72d"/>
  </g>
 </g>
</svg>
